<svg xmlns="http://www.w3.org/2000/svg" width="24" height="24" viewBox="0 0 24 24"><path d="M0 0h24v24H0z"/><path fill="#fff" d="M3.428 2A1.43 1.43 0 0 0 2 3.428v17.144A1.43 1.43 0 0 0 3.428 22a1.43 1.43 0 0 0 1.43-1.428V4.857h8.694L9.204 9.204a1.43 1.43 0 0 0 0 2.02l2.562 2.562L5.99 19.56a1.43 1.43 0 0 0 0 2.02 1.43 1.43 0 0 0 2.02 0l5.775-5.775 5.777 5.775A1.428 1.428 0 0 0 22 20.572V7a1.428 1.428 0 0 0-2.438-1.01l-5.776 5.775-1.552-1.55 5.776-5.777A1.428 1.428 0 0 0 17 2Zm15.714 8.448v6.675l-3.336-3.337z"/></svg>